<?xml version="1.0" encoding="utf-8"?>
<!-- Generator: Adobe Illustrator 19.2.1, SVG Export Plug-In . SVG Version: 6.00 Build 0)  -->
<svg version="1.1" id="Layer_1" xmlns="http://www.w3.org/2000/svg" xmlns:xlink="http://www.w3.org/1999/xlink" x="0px" y="0px"
	 viewBox="0 0 14.1 14.1" style="enable-background:new 0 0 14.1 14.1;" xml:space="preserve">
<style type="text/css">
	.st0{fill:#FFFFFF;}
</style>
<path class="st0" d="M6.9,0C4.8,0,2.7,1,1.3,2.8L0.9,1.3L0.2,1.5L1,4.4l0.7-0.2l2.2-0.6L3.7,2.9L2.2,3.3C3.3,1.9,5.1,1,6.9,1
	c3.3,0,6.1,2.7,6.1,6.1s-2.7,6-6.1,6c-2,0-3.9-1-5-2.7L1,11c1.3,2,3.5,3.1,5.9,3.1c3.9,0,7.1-3.2,7.1-7S10.9,0,6.9,0z M1.5,3.5
	L1.5,3.5L1.5,3.5L1.5,3.5z"/>
</svg>
