<?xml version="1.0" encoding="utf-8"?>
<!-- Generator: Adobe Illustrator 19.2.1, SVG Export Plug-In . SVG Version: 6.00 Build 0)  -->
<svg version="1.1" id="Layer_1" xmlns="http://www.w3.org/2000/svg" xmlns:xlink="http://www.w3.org/1999/xlink" x="0px" y="0px"
	 viewBox="0 0 20 20" style="enable-background:new 0 0 20 20;" xml:space="preserve">
<style type="text/css">
	.st0{fill:#27AE60;}
</style>
<path id="Check" class="st0" d="M10,0C4.5,0,0,4.5,0,10c0,5.5,4.5,10,10,10s10-4.5,10-10C20,4.5,15.5,0,10,0z M16.1,6
	c0,0-8.2,8.2-8.3,8.3s-0.3,0.1-0.4,0l-3.5-3.5c-0.1-0.1-0.1-0.3,0-0.4h0c0.1-0.1,0.3-0.1,0.4,0l3.3,3.3l0,0l8.1-8.1
	c0.1-0.1,0.3-0.1,0.4,0S16.2,5.9,16.1,6z"/>
</svg>
