<?xml version="1.0" encoding="utf-8"?>
<!-- Generator: Adobe Illustrator 19.2.1, SVG Export Plug-In . SVG Version: 6.00 Build 0)  -->
<svg version="1.1" id="Layer_1" xmlns="http://www.w3.org/2000/svg" xmlns:xlink="http://www.w3.org/1999/xlink" x="0px" y="0px"
	 viewBox="0 0 100 29.3" style="enable-background:new 0 0 100 29.3;" xml:space="preserve">
<style type="text/css">
	.st0{fill:#A87D28;}
	.st1{fill:#00582A;}
	.st2{fill:#FFFFFF;}
</style>
<g id="Logo">
	<path class="st0" d="M100,14c-0.1-1-0.2-2-0.4-2.9c-1.1-4-3.4-7-7-9.1c-1.8-1.1-3.8-1.7-5.9-1.9c-0.3,0-0.5,0-0.8-0.1
		c-0.3,0-0.7,0-1,0c-0.1,0-0.2,0-0.2,0c-1.2,0-2.4,0.3-3.6,0.6c-5.6,1.7-9.9,6.8-10.3,13.1c-0.1,1.3,0,2.7,0.3,4
		c0.7,3,2.1,5.6,4.4,7.7c2.6,2.4,5.7,3.7,9.3,3.9c1.2,0.1,2.5,0,3.7-0.3c4.6-1,7.9-3.7,10.1-7.8C99.6,19.1,100.1,16.6,100,14z
		 M98.1,21.1c-2.1,4-5.3,6.6-9.8,7.6c-1.2,0.3-2.4,0.4-3.6,0.3c-3.5-0.2-6.5-1.5-9-3.8c-2.2-2-3.6-4.5-4.2-7.4
		c-0.3-1.3-0.4-2.6-0.3-3.9c0.4-6.1,4.6-11,10-12.7c1.1-0.3,2.3-0.6,3.5-0.6c0.1,0,0.2,0,0.2,0c0.3,0,0.7,0,1,0s0.5,0.1,0.8,0.1
		c2.1,0.2,4,0.8,5.8,1.8c3.4,2,5.7,4.9,6.7,8.8c0.3,0.9,0.4,1.9,0.4,2.8C99.7,16.5,99.2,18.9,98.1,21.1z"/>
	<path class="st1" d="M99.5,14c-0.1-1-0.2-1.9-0.4-2.8c-1-3.8-3.3-6.8-6.7-8.8c-1.8-1-3.7-1.6-5.8-1.8c-0.3,0-0.5,0-0.8-0.1
		c-0.3,0-0.7,0-1,0c-0.1,0-0.2,0-0.2,0c-1.2,0-2.3,0.3-3.5,0.6c-5.4,1.7-9.6,6.6-10,12.7c-0.1,1.3,0,2.6,0.3,3.9
		c0.6,2.9,2,5.4,4.2,7.4c2.5,2.4,5.6,3.6,9,3.8c1.2,0.1,2.4,0,3.6-0.3c4.4-1,7.7-3.6,9.8-7.6C99.2,18.9,99.7,16.5,99.5,14z M99.1,15
		c-0.2,7.4-6.2,13.5-13.9,13.4c-7.5-0.1-13.5-6.2-13.5-13.7C71.7,7.1,77.8,1,85.5,1C93.1,1.1,99.2,7.4,99.1,15z"/>
	<path class="st1" d="M0,5.4c0.1-0.3,0.1-0.6,0.2-0.9C0.6,3.1,1.4,2,2.7,1.3c1.1-0.6,2.2-0.9,3.5-0.9c0.9,0,1.7,0.2,2.6,0.5
		C8.9,0.9,9.1,1,9.2,1c0.3,0.1,0.6,0,0.7-0.3c0.1-0.2,0.2-0.1,0.4-0.1c0,0,0.1,0.1,0.1,0.2c0,1.2,0,2.4,0,3.5c0,0,0,0.1-0.1,0.1
		S10.1,4.5,10,4.5C9.9,4.2,9.9,4,9.8,3.8c-0.1-0.5-0.3-1-0.7-1.5C8.6,1.7,8,1.4,7.3,1.3c-1-0.2-1.9,0-2.6,0.6
		c-0.6,0.4-0.9,1-1.2,1.6C2.9,5.2,3,6.9,3.9,8.5C4.2,9.4,5,9.9,6,10.1c0.7,0.1,1.5,0,2.1-0.3s1.2-0.7,1.7-1.2
		c0.1-0.1,0.1-0.1,0.1-0.3c-0.7-1.8,0-3.6,1.4-4.7c1.1-0.8,2.3-1.1,3.6-1.1c1.5,0.1,2.8,0.7,3.8,2c1.2,1.5,1.1,3.6-0.2,5
		c-0.9,1-2,1.6-3.3,1.7c-1.6,0.2-3-0.2-4.2-1.3c-0.3-0.3-0.6-0.6-0.8-0.9C10,9.2,9.7,9.5,9.4,9.7c-0.8,0.7-1.7,1.2-2.7,1.4
		c-1.4,0.3-2.7,0-3.9-0.6C1.3,9.8,0.4,8.6,0.1,7.1c0,0-0.1-0.2-0.1-0.5C0,6.2,0,5.8,0,5.4z M17,6.9c0-0.1,0-0.4,0-0.6
		c-0.1-0.8-0.4-1.6-0.9-2.2c-0.8-0.9-2-0.9-2.8-0.1c-0.3,0.3-0.6,0.7-0.7,1.1c-0.3,0.8-0.4,1.7-0.3,2.6c0.1,0.8,0.4,1.6,1,2.2
		c0.4,0.5,1,0.7,1.6,0.7c0.6-0.1,1-0.4,1.3-0.8C16.7,8.9,17,8,17,6.9z"/>
	<path class="st1" d="M39.1,5.9c0.1-1.1,0.6-1.9,1.5-2.5c1.4-0.8,3.2-0.8,4.5,0.2c0.4,0.3,0.7,0.7,0.8,1.3c0,0.1,0,0.2,0,0.3
		c0,1.4,0,2.7,0,4.1c0,0.1,0,0.3,0,0.4c0.1,0.4,0.3,0.6,0.7,0.4c0.1,0,0.1,0,0.2-0.1c0,0.5-0.8,1.2-1.4,1.3c-0.6,0.1-1.4-0.1-2-1.2
		c-1.1,1-2.3,1.5-3.8,1.1c0,1.1,0,2.3,0,3.4c0.1,0,0.1,0,0.2,0c0.6,0,1.3,0,1.9,0c0.2,0,0.2,0.1,0.2,0.2c0,0.1,0,0.3,0,0.4
		c0,0.1,0,0.2-0.2,0.2c-0.6,0-1.3,0-1.9,0c-0.1,0-0.1,0-0.2,0c0,0.1,0,0.1,0,0.2c0,1.3,0,2.7,0,4c0,0.2,0,0.5,0.1,0.7
		c0.2,0.6,0.6,0.8,1.2,0.7c0.2,0,0.4-0.1,0.6-0.2c-0.1-0.4-0.1-0.8,0-1.1c0.2-0.8,0.8-1.2,1.5-1.4c0.9-0.3,1.7-0.5,2.6-0.8
		c0.6-0.2,0.6-0.6,0.5-1s-0.4-0.6-0.7-0.7c-1-0.4-1.9-0.3-2.7,0.4c-0.2,0.2-0.4,0.4-0.6,0.7c0,0-0.1,0.1-0.1,0.2
		c0-0.6,0.2-1.2,0.5-1.6c0.5-0.8,1.3-1.2,2.1-1.3c1.1-0.2,2.1-0.1,3,0.6c0.5,0.3,0.8,0.7,1,1.3c0,0.2,0.1,0.3,0.1,0.5
		c0,1.3,0,2.7,0,4c0,0.2,0,0.3,0.1,0.4c0.1,0.3,0.3,0.4,0.6,0.3c0.1,0,0.2,0,0.2-0.1c-0.1,0.6-0.8,1.2-1.5,1.3
		c-0.6,0.1-1.3-0.1-1.8-1.2c-0.1,0.1-0.1,0.1-0.2,0.1c-0.6,0.5-1.2,0.9-2,1c-1,0.2-1.8,0-2.4-0.9l0,0c-0.5,0.6-1.2,0.9-2,1
		c-0.4,0-0.9,0-1.3-0.2c-0.7-0.3-1-0.9-1.2-1.6c-0.1-0.3-0.1-0.7-0.1-1c0-1.4,0-2.7,0-4.1c0-0.1,0-0.1,0-0.2c-0.3,0-0.6,0-0.9,0
		c0-0.3,0-0.5-0.1-0.8c-0.1-0.9-0.4-1.8-1-2.5c-0.4-0.5-1-0.9-1.7-0.8c-0.8,0-1.5,0.4-1.9,1C31,13,31,14,31.8,14.6
		c1,0.8,2,1.5,2.9,2.3c0.4,0.4,0.9,0.7,1.3,1.1c0.8,1.2,1.1,2.4,0.8,3.8c-0.2,0.7-0.6,1.2-1.2,1.6c-0.9,0.6-1.9,1-2.9,1.1
		c-1.4,0.1-2.6-0.5-3.6-1.5c-0.3-0.3-0.5-0.7-0.8-1c0.2-0.1,0.3-0.2,0.4-0.2c0.3,0.3,0.6,0.6,0.9,0.9c0.6,0.5,1.3,0.8,2.1,0.8
		c1.2,0,2-0.7,2.2-1.8c0.2-1,0-1.9-0.8-2.5c-1-0.9-2-1.7-3.1-2.5c-0.6-0.5-1.1-1.1-1.3-1.9c-0.3-1.2,0.1-2.2,1-3.1
		c0.6-0.5,1.2-0.8,2-1c0.1,0,0.2-0.1,0.4-0.1c0.3-0.1,0.5-0.4,0.5-0.7c0-0.2,0-0.3,0-0.5c0-1.6,0-3.3,0-4.9c0-0.2,0-0.4-0.1-0.5
		c-0.1-0.3-0.2-0.5-0.5-0.6c-0.2,0-0.3-0.1-0.5-0.1c-0.3,0-0.3,0-0.3-0.3c1.2,0,2.5,0,3.8,0c0,0.7,0,1.3,0,2.1
		C35.1,5,35.1,5,35.2,4.9c0.5-0.6,0.9-1.1,1.4-1.7C37,2.7,37.5,2.7,38,2.8c0.3,0.1,0.6,0.3,0.9,0.5L39,3.4c-0.2,1-0.4,2-0.5,3
		c-0.1-0.1-0.1-0.2-0.2-0.2c-0.4-0.5-0.8-0.9-1.5-1.1c-0.9-0.2-1.7,0.3-1.7,1.2c0,1.1,0,2.2,0,3.2c0,0.6,0.5,1.1,1.2,1.2
		c0.1,0,0.2,0,0.3,0c0,1.2,0,2.4,0,3.6c0.1,0,0.1,0,0.2-0.1c1.2-0.5,2-1.4,2.3-2.7c0.1-0.2,0.1-0.4,0.2-0.7c0-0.1,0-0.1-0.1-0.2
		c-1.1-0.9-1.3-2.9,0.6-3.6c0.7-0.3,1.4-0.5,2.2-0.7c0.3-0.1,0.5-0.2,0.8-0.2c0.4-0.1,0.5-0.4,0.4-0.8c-0.1-0.4-0.3-0.7-0.7-0.8
		c-1-0.5-2.1-0.3-3,0.4C39.5,5.4,39.3,5.6,39.1,5.9z M43.5,6.9C43.4,6.9,43.4,6.9,43.5,6.9c-0.6,0.2-1,0.4-1.5,0.6
		c-0.2,0.1-0.4,0.1-0.5,0.3c-0.5,0.3-0.6,1-0.3,1.6s0.8,0.8,1.5,0.7c0.6-0.1,0.9-0.5,0.9-1.1s0-1.3,0-1.9C43.5,7,43.5,7,43.5,6.9z
		 M46.4,18C46.3,18,46.3,18,46.4,18c-0.6,0.3-1.2,0.6-1.8,0.8c-0.2,0.1-0.4,0.3-0.5,0.5c-0.1,0.3-0.1,0.7,0,1
		c0.2,0.6,0.6,0.9,1.3,0.9c0.6,0,1-0.3,1.1-1C46.4,19.6,46.4,18.8,46.4,18z"/>
	<path class="st1" d="M52.5,3.8c0-0.3,0-0.5,0-0.8c0-0.5,0-1.1,0-1.6c0-0.4-0.2-0.6-0.7-0.6c-0.2,0-0.4,0-0.6-0.1c0-0.1,0-0.2,0-0.3
		c1.3,0,2.5,0,3.8,0c0,0.1,0,0.1,0,0.2c0,3,0,5.9,0,8.9c0,0.7,0.3,1.1,0.9,1.3c0.3,0.1,0.3,0.1,0.2,0.4c-1.3,0-2.5,0-3.8,0
		c0,1.2,0,2.3,0,3.4c0.8,0,1.5,0,2.3,0c0,0.3,0,0.5,0,0.8c-0.8,0-1.5,0-2.3,0c0,0.1,0,0.2,0,0.2c0,1,0,2.1,0,3.1c0,0.4,0,0.9,0,1.3
		c0,0.2,0.1,0.5,0.2,0.7c0.2,0.4,0.5,0.5,1,0.4c0.3-0.1,0.6-0.3,0.8-0.5c-0.2-0.4-0.4-0.8-0.5-1.2c-0.3-2,0.5-4,2.8-4.6
		c1-0.3,2-0.4,3.1-0.1c1.1,0.3,1.7,1.1,2,2.2c0.1,0.4,0.2,0.7,0.2,1.1c-1,0-1.9,0-2.8,0c-0.9,0-1.8,0-2.7,0c0,0.4,0.1,0.9,0.2,1.3
		c0.2,0.6,0.5,1.2,0.9,1.6c0.4,0.4,0.9,0.6,1.4,0.6c0.8,0,1.5-0.2,2.1-0.8c0.3-0.3,0.5-0.6,0.8-0.9l0.1-0.1c0.1,0,0.1,0.1,0.1,0.1
		c0.1,0.1,0.1,0.2,0.1,0.3c-0.5,1.2-1.3,2-2.5,2.3c-1.7,0.5-3.3,0.2-4.7-1c-0.1-0.1-0.2-0.2-0.3-0.3c-0.1,0.1-0.2,0.3-0.3,0.4
		c-0.6,0.7-1.2,1.1-2.1,1c-0.9-0.1-1.7-0.4-2.1-1.2c-0.2-0.4-0.3-0.8-0.3-1.3c0-1.5,0-2.9,0-4.4c0-0.1,0-0.1,0-0.2c-0.3,0-0.7,0-1,0
		c0-0.2,0-0.4,0-0.5s0.1-0.1,0.2-0.1c0.7-0.2,1.3-0.6,1.9-1.1c0.6-0.7,1-1.5,1.2-2.3c0,0,0,0,0-0.1c-0.1,0-0.1,0-0.2,0
		c-0.7,0-1.4,0-2.1-0.1c-1.2-0.1-2.2-0.6-2.8-1.6c-0.4-0.6-0.5-1.2-0.6-1.9c-0.1-1,0.1-2,0.7-2.8c0.6-0.9,1.4-1.6,2.5-1.7
		C50.5,2.9,51.5,3,52.5,3.8C52.4,3.7,52.4,3.7,52.5,3.8z M52.5,7.4L52.5,7.4c0-0.8,0-1.6,0-2.4c0-0.5-0.2-0.9-0.7-1.1
		c-0.8-0.3-1.7-0.2-2.3,0.6c-0.5,0.7-0.7,1.4-0.7,2.2c0,0.9,0.2,1.7,0.7,2.5c0.5,0.7,1.1,1.3,2,1.3c0.6,0,1-0.4,1-0.9
		C52.5,8.9,52.5,8.2,52.5,7.4z M59.4,17.2c0-0.6-0.1-1.2-0.6-1.6c-0.4-0.4-0.9-0.4-1.4-0.1c-0.4,0.3-0.6,0.6-0.7,1
		c-0.1,0.2-0.2,0.5-0.1,0.8c0.9,0,1.8,0,2.6,0C59.2,17.2,59.3,17.2,59.4,17.2z"/>
	<path class="st1" d="M27.8,11.4c-1.5,0-2.7-0.5-3.7-1.4c-0.8-0.7-1.2-1.6-1.3-2.7c-0.1-1.7,0.7-2.9,2.1-3.8c2-1.2,4.7-1,6.4,0.6
		c0.7,0.7,1.2,1.5,1.4,2.5c0.2,1.3-0.2,2.4-1.1,3.4c-0.9,0.9-1.9,1.4-3.1,1.5C28.1,11.3,27.9,11.3,27.8,11.4z M30.1,6.8
		c0-0.2,0-0.5-0.1-0.7c-0.1-0.8-0.4-1.6-1-2.2c-0.8-0.8-1.8-0.9-2.6-0.1c-0.3,0.2-0.5,0.5-0.6,0.8c-0.6,1.1-0.7,2.3-0.4,3.6
		c0.2,0.7,0.5,1.4,1.2,1.9s1.5,0.5,2.2,0c0.3-0.2,0.5-0.5,0.7-0.8C29.9,8.7,30.1,7.8,30.1,6.8z"/>
	<path class="st1" d="M60.1,2.6c1.6,0,2.8,0.5,3.9,1.6C64.8,5,65.2,5.9,65.2,7c0,1.4-0.6,2.4-1.7,3.3c-1,0.7-2,1.1-3.3,1.1
		c-1.4,0-2.6-0.4-3.6-1.3c-0.8-0.7-1.3-1.6-1.4-2.6c-0.1-1.2,0.3-2.3,1.1-3.1c0.8-0.9,1.9-1.4,3.1-1.6C59.7,2.6,59.9,2.6,60.1,2.6z
		 M57.7,7.1c0,0.2,0,0.5,0.1,0.8c0.1,0.7,0.4,1.4,0.9,2c0.8,0.9,1.9,0.9,2.7,0.1c0.3-0.3,0.6-0.7,0.7-1.1c0.4-0.9,0.4-1.8,0.3-2.7
		c-0.1-0.7-0.4-1.4-0.8-2c-0.4-0.4-0.8-0.8-1.4-0.8c-0.7-0.1-1.2,0.3-1.7,0.8C57.9,4.9,57.7,5.9,57.7,7.1z"/>
	<path class="st1" d="M18.5,0.7c0-0.1,0-0.2,0-0.3c1.3,0,2.7,0,4,0c0,0.1,0,0.2,0,0.2c0,3,0,6,0,9.1c0,0.2,0,0.3,0,0.5
		c0.1,0.4,0.4,0.7,0.8,0.8c0.1,0,0.3,0,0.4,0.1c0,0.1,0,0.2,0,0.3c-1.7,0-3.4,0-5.2,0c0-0.1,0-0.2,0-0.4c0.2,0,0.3,0,0.5-0.1
		c0.4-0.1,0.6-0.3,0.7-0.6c0-0.2,0.1-0.4,0.1-0.6c0-2.6,0-5.3,0-7.9c0-0.1,0-0.3,0-0.4C19.7,1,19.5,0.8,19,0.8
		C18.8,0.7,18.6,0.7,18.5,0.7z"/>
	<path class="st1" d="M42.5,27.6c-0.5,0-1.1,0-1.6,0l0,0c0.3,0,0.4-0.2,0.4-0.6c0-0.5,0-1,0-1.4c0-0.5,0-0.4-0.3-0.6
		c0.3-0.2,0.6-0.3,1-0.5c0,0.2,0,0.4,0,0.6c0.2-0.2,0.4-0.5,0.7-0.5c0.2,0,0.5-0.1,0.7,0c0.3,0,0.5,0.4,0.5,0.8c0,0.5,0,1.1,0,1.6
		c0,0.1,0,0.1,0,0.2c0,0.4,0.3,0.6,0.7,0.4c0.1,0,0.1-0.1,0.1-0.2c0-0.1,0-0.3,0-0.4c0-0.5,0-0.9,0-1.4c0-0.3,0-0.4-0.3-0.5
		c0.3-0.2,0.6-0.3,1-0.5c0,0.1,0,0.1,0,0.2c0,0.8,0,1.6,0,2.4c0,0.2,0,0.5,0.3,0.5c-0.9,0-1.8,0-2.7,0l0,0c0.4,0,0.3-0.3,0.3-0.5
		c0-0.5,0-1,0-1.4s-0.2-0.6-0.5-0.6s-0.7,0.2-0.7,0.5c0,0.6,0,1.1,0,1.7C42.1,27.6,42.2,27.7,42.5,27.6
		C42.3,27.5,42.4,27.6,42.5,27.6L42.5,27.6z"/>
	<path class="st1" d="M59.1,24.7c0,0.1,0,0.1,0,0.2c-0.3,0-0.6,0-0.9,0l0,0c0,0.6,0,1.3,0,1.9c0,0.4,0.3,0.5,0.6,0.4
		c0.1-0.1,0.3-0.1,0.4-0.2c0,0.1,0,0.1,0,0.2c-0.3,0.4-0.9,0.6-1.4,0.4c-0.2-0.1-0.4-0.3-0.4-0.6c0-0.6,0-1.3,0-1.9
		c0-0.1,0-0.1,0-0.2c-0.1,0-0.2,0-0.3,0c0.3-0.3,0.6-0.7,1-1c0,0.2,0,0.4,0,0.7c0.1,0,0.1,0,0.2,0c0.7,0,1.4,0,2.1,0
		c0.1,0,0.1,0,0.2,0c0,0,0,0,0,0.1c-0.1,0-0.1,0-0.2,0c-0.2,0-0.3,0.2-0.2,0.4c0.2,0.6,0.5,1.2,0.8,1.9c0.1-0.3,0.2-0.5,0.3-0.7
		c0.1-0.3,0.3-0.7,0.4-1c0.2-0.4,0.1-0.5-0.4-0.6c0,0-0.1,0-0.1-0.1c0.4,0,0.8,0,1.3,0l-0.1,0.1c-0.3,0.1-0.4,0.3-0.5,0.5
		c-0.3,0.8-0.7,1.7-1.1,2.5c-0.1,0.2-0.2,0.5-0.4,0.7c-0.1,0.2-0.3,0.2-0.5,0.1c-0.2-0.1-0.3-0.3-0.3-0.5s0.1-0.3,0.3-0.3
		c0.1,0,0.3,0,0.3,0.2c0.1,0.1,0.1,0.2,0.2,0.3c0.2-0.2,0.3-0.3,0.2-0.6c-0.4-0.8-0.8-1.7-1.1-2.5C59.4,24.9,59.3,24.7,59.1,24.7z"
		/>
	<path class="st1" d="M36.7,23.3c0-0.1,0-0.2,0.1-0.2c0.6,0,1.1,0,1.7,0c0,0,0.1,0,0.1,0.1s-0.1,0.1-0.1,0.1c-0.4,0-0.5,0.1-0.5,0.5
		c0,0.3,0,0.6,0,0.9c0,0.6,0,1.2,0,1.8c0,0.4,0.1,0.8,0.6,1s1,0.1,1.4-0.2c0.3-0.3,0.5-0.6,0.5-1.1c0-0.7,0-1.5,0-2.2
		c0-0.4-0.1-0.6-0.6-0.6c0,0,0,0-0.1,0c0-0.1,0-0.2,0.1-0.2c0.5,0,0.9,0,1.4,0c0,0.1,0,0.1,0,0.2h-0.1c-0.4,0-0.6,0.2-0.6,0.6
		c0,0.8,0,1.6,0,2.3c0,0.3-0.1,0.6-0.2,0.8c-0.3,0.4-0.7,0.7-1.2,0.7c-0.3,0-0.7,0-1-0.1c-0.6-0.1-0.9-0.6-0.9-1.2
		c0-0.8,0-1.7,0-2.5C37.3,23.4,37.2,23.4,36.7,23.3z"/>
	<path class="st1" d="M51.2,26.6c0,0.1,0,0.1,0,0.2c-0.2,0.6-0.9,1-1.5,0.9c-0.7-0.1-1.1-0.6-1.2-1.3c0-0.5,0.1-1,0.5-1.4
		s1.3-0.5,1.8-0.2c0.3,0.2,0.5,0.5,0.5,1c-0.1,0-0.1,0-0.2,0c-0.6,0-1.2,0-1.8,0c-0.1,0-0.2,0-0.2,0.2c0,0.3,0.1,0.6,0.2,0.8
		c0.4,0.8,1.5,0.6,1.8,0.1C51,26.7,51.1,26.6,51.2,26.6C51.1,26.6,51.1,26.6,51.2,26.6z M50.4,25.5c0-0.6-0.2-0.8-0.6-0.8
		c-0.4,0-0.7,0.4-0.7,0.8C49.5,25.5,49.9,25.5,50.4,25.5z"/>
	<path class="st1" d="M55.5,25.5c-0.1,0-0.1,0-0.2,0c0-0.1,0-0.2-0.1-0.3c-0.1-0.4-0.5-0.6-0.8-0.6c-0.2,0-0.4,0.2-0.4,0.4
		s0,0.3,0.2,0.5c0.3,0.2,0.6,0.3,0.9,0.5c0.1,0.1,0.3,0.2,0.4,0.3c0.4,0.4,0.2,1-0.3,1.3c-0.4,0.2-0.9,0.2-1.3,0.1
		c-0.5-0.1-0.5-0.1-0.5-0.6c0-0.1,0-0.3,0-0.4c0,0,0,0,0.1,0l0.1,0.1c0,0.1,0.1,0.2,0.1,0.3c0.2,0.4,0.5,0.5,0.9,0.5
		c0.2,0,0.3-0.2,0.3-0.3c0.1-0.2,0-0.3-0.1-0.5c-0.1-0.1-0.2-0.2-0.4-0.2c-0.2-0.1-0.4-0.2-0.6-0.4c-0.3-0.2-0.5-0.7-0.4-1
		s0.5-0.6,0.9-0.6s0.7,0,1,0.2c0.1,0,0.1,0.1,0.1,0.2C55.5,25.1,55.5,25.3,55.5,25.5z"/>
	<path class="st1" d="M47.2,27.8c-0.2-0.4-0.4-0.8-0.6-1.2c-0.2-0.5-0.5-1-0.7-1.5c-0.1-0.2-0.2-0.3-0.4-0.4l0.1-0.1
		c0.4,0,0.9,0,1.3,0c0,0,0.1,0,0.1,0.1c0,0,0,0.1-0.1,0.1c-0.2,0.1-0.3,0.2-0.2,0.4c0.1,0.3,0.2,0.5,0.3,0.8s0.3,0.6,0.4,0.9
		c0.1-0.3,0.2-0.6,0.3-0.8s0.2-0.5,0.3-0.7c0.1-0.3,0.1-0.5-0.3-0.6c0.4,0,0.7,0,1,0l0,0c-0.3,0.1-0.5,0.3-0.6,0.6
		c-0.3,0.8-0.7,1.6-1,2.4C47.2,27.7,47.2,27.7,47.2,27.8z"/>
	<path class="st1" d="M52.7,27.6c-0.5,0-1,0-1.5,0v-0.1c0.4-0.1,0.4-0.1,0.4-0.5c0-0.5,0-1,0-1.5c0-0.4,0-0.4-0.4-0.5
		c0.3-0.1,0.6-0.3,1-0.4c0,0.2,0,0.3,0,0.5c0.1-0.2,0.2-0.3,0.3-0.4c0.2-0.2,0.4-0.3,0.6-0.2c0.2,0.1,0.3,0.2,0.2,0.4
		c0,0.2-0.1,0.3-0.3,0.4c-0.1,0-0.2,0-0.3-0.1c-0.2-0.2-0.4-0.2-0.5,0.1c0,0.1,0,0.2,0,0.3c0,0.5,0,1,0,1.5
		C52.3,27.4,52.3,27.5,52.7,27.6C52.6,27.6,52.7,27.6,52.7,27.6z"/>
	<path class="st1" d="M55.7,27.6C55.8,27.6,55.8,27.6,55.7,27.6c0.4,0,0.5-0.1,0.5-0.4c0-0.6,0-1.1,0-1.7c0-0.4,0-0.4-0.3-0.5
		c0.3-0.2,0.6-0.3,0.9-0.5c0,0.1,0,0.1,0,0.2c0,0.7,0,1.5,0,2.2c0,0.3,0,0.6,0.4,0.7C56.7,27.6,56.2,27.6,55.7,27.6L55.7,27.6z"/>
	<path class="st1" d="M45,23.4c0.2,0,0.4,0.2,0.4,0.4s-0.2,0.4-0.4,0.4s-0.4-0.2-0.4-0.4C44.6,23.5,44.8,23.4,45,23.4z"/>
	<path class="st1" d="M56.9,23.8c0,0.2-0.2,0.4-0.4,0.4s-0.4-0.2-0.4-0.4s0.2-0.4,0.4-0.4S56.9,23.5,56.9,23.8z"/>
	<path class="st2" d="M46.4,18c0,0.8,0,1.5,0,2.3c-0.1,0.6-0.5,0.9-1.1,1c-0.6,0-1.1-0.3-1.3-0.9c-0.1-0.3-0.1-0.7,0-1
		c0.1-0.2,0.2-0.4,0.5-0.5C45.1,18.6,45.7,18.3,46.4,18C46.3,18,46.3,18,46.4,18z"/>
	<path class="st1" d="M97.2,10.3c-0.4-0.1-0.8-0.2-1.2-0.2c-0.3,0-0.6,0-0.9,0c-0.5,0.1-0.7,0.5-0.6,1c0.1,0.4,0.2,0.7,0.4,1.1
		c0.3,0.7,0.5,1.4,0.6,2.2c0.1,1.2-0.1,2.2-0.6,3.3c-0.1,0.2-0.2,0.3-0.2,0.5l0,0c0.1-0.1,0.3-0.1,0.4-0.2c0.4-0.2,0.8-0.3,1.3-0.5
		c0.2-0.1,0.5-0.1,0.7,0.1c0.2,0.2,0.1,0.5,0,0.8s-0.4,0.6-0.6,0.8c-0.9,0.8-1.7,1.6-2.3,2.6c-0.2,0.3-0.3,0.6-0.5,0.9
		c-0.1,0.2-0.1,0.3,0,0.5c0.2,0.1,0.4,0.1,0.5,0c0.3-0.2,0.6-0.5,0.9-0.7c0.9-0.9,1.6-2,2.3-3.1c0,0,0-0.1,0.1-0.1
		c-0.1,0.2-0.1,0.3-0.2,0.5c-0.6,1.4-1.3,2.7-2.3,3.8c-0.4,0.5-1,0.8-1.7,1c-0.8,0.1-1.4-0.4-1.3-1.2c0-0.6,0.3-1.1,0.6-1.5
		c0.8-1.3,1.9-2.3,3.2-3c0.2-0.1,0.5-0.3,0.7-0.4c0.1,0,0.1-0.1,0.1-0.2c-0.1,0-0.2-0.1-0.2-0.1c-0.2,0-0.4,0.1-0.6,0.2
		c-1.9,0.8-3.3,2.1-4.3,3.9c-0.2,0.3-0.3,0.7-0.4,1c-0.2,0.8,0.3,1.6,1.1,1.9c0.2,0.1,0.3,0.1,0.5,0.1s0.3,0,0.5,0
		c-2,1.7-4.3,2.6-6.9,2.8c-3.4,0.3-6.4-0.6-9-2.8c0.3,0,0.5,0,0.7,0c0.8-0.1,1.4-0.8,1.5-1.6c0-0.4-0.1-0.8-0.3-1.2
		c-0.8-1.6-2-2.9-3.6-3.8c-0.4-0.2-0.8-0.4-1.2-0.5c0,0-0.1,0-0.2,0S74,18.3,74,18.3c0,0.1,0.1,0.2,0.1,0.2c0.2,0.2,0.5,0.3,0.8,0.5
		c1.3,0.7,2.3,1.7,3.1,2.9c0.3,0.4,0.5,0.9,0.6,1.4c0.1,0.6-0.1,1.1-0.5,1.3c-0.3,0.2-0.7,0.2-1,0.1c-0.6-0.2-1.2-0.5-1.6-1
		c-1-1.3-1.9-2.6-2.4-4.2c0,0,0,0,0-0.1c0.2,0.3,0.3,0.6,0.5,0.8c0.6,0.9,1.3,1.9,2.1,2.7c0.2,0.2,0.5,0.4,0.7,0.5
		c0.1,0.1,0.3,0.2,0.5,0c0.2-0.1,0.1-0.3,0-0.5c-0.2-0.5-0.5-1-0.9-1.5c-0.6-0.8-1.2-1.5-2-2.1c-0.3-0.3-0.6-0.5-0.6-0.9
		c-0.1-0.5,0.2-0.8,0.6-0.7s0.7,0.2,1.1,0.3c0.3,0.1,0.5,0.2,0.8,0.4c0.1-0.4,0.1-0.5,0-0.6c-0.5-1-0.7-2-0.7-3.1
		c0-0.8,0.3-1.6,0.6-2.4c0.2-0.4,0.3-0.8,0.4-1.2c0.1-0.5-0.2-1-0.7-1.1c-0.1,0-0.3,0-0.4,0c-0.5,0.1-1,0.1-1.4,0.2c0,0-0.1,0-0.2,0
		l0,0c1-0.6,2.1-1.1,3.3-1.4c1.5-0.3,2.8,0.1,3.9,1.2c0.5,0.5,0.9,1,1.4,1.6c0.3,0.3,0.6,0.4,1,0.4c0.1,0,0.3-0.1,0.4-0.1
		c0.5-0.1,0.8-0.4,1-0.8c0.2-0.5,0.4-1.1,0.2-1.6c-0.1-0.4-0.3-0.7-0.6-1c-1.1-1.1-2.3-2-3.8-2.6c-1.9-0.6-3.6-0.3-5.1,0.9
		c0,0-0.1,0-0.1,0.1l0,0c1.5-2.5,5.3-5,9.5-5.3c5.4-0.3,9.6,2.8,11.1,5.3l-0.1-0.1c-1-0.8-2.2-1.3-3.5-1.2c-0.9,0-1.7,0.3-2.5,0.7
		c-1.1,0.6-2.1,1.3-2.9,2.2c-0.6,0.6-0.7,1.4-0.5,2.2c0,0.1,0.1,0.2,0.1,0.2c0.2,0.6,0.6,0.9,1.2,1h0.1c0.4,0.1,0.8,0,1.1-0.3
		c0.4-0.5,0.8-1,1.3-1.5c0.6-0.7,1.3-1.2,2.2-1.4c0.7-0.1,1.4-0.1,2.1,0.1C95.3,9.2,96.2,9.7,97.2,10.3z M85.3,20.8
		c0.1,0,0.1-0.1,0.2-0.1c0.3-0.2,0.6-0.4,1-0.4c0.3,0,0.4,0.1,0.5,0.4c0,0.2-0.1,0.4-0.3,0.5c-0.2,0-0.3,0.1-0.5,0.1
		c-0.4,0.1-0.6,0.4-0.6,0.8c0,0.2,0.1,0.3,0.3,0.4c0.7,0.2,1.4,0,1.9-0.5c0.3-0.2,0.4-0.5,0.4-0.8c0-0.4-0.1-0.8-0.3-1.1
		c-0.4-0.9-1.1-1.7-1.8-2.4c-0.5-0.5-0.9-0.4-1.4,0c-0.4,0.4-0.8,0.9-1.2,1.4c-0.4,0.5-0.7,1.1-0.8,1.7c-0.1,0.4,0,0.8,0.3,1.1
		c0.6,0.5,1.2,0.8,2,0.6c0.2-0.1,0.3-0.1,0.3-0.4c0-0.4-0.3-0.8-0.8-0.9c-0.2,0-0.3-0.1-0.5-0.1s-0.2-0.2-0.3-0.3
		c0-0.4,0.3-0.6,0.7-0.5C84.7,20.4,85,20.5,85.3,20.8z M82,21.4c0-0.4,0-0.7,0.1-1.1c0.1-0.7,0.4-1.3,0.7-1.8
		c0.3-0.5,0.5-0.9,0.7-1.5c0.1-0.4,0.2-0.8,0.1-1.2c0-0.1-0.1-0.1-0.1-0.2c-0.6-0.3-1-0.7-1.3-1.2c-0.1-0.2-0.2-0.3-0.3-0.4
		c-0.5-0.5-1.5-0.4-1.8,0.3c-0.1,0.3-0.2,0.6-0.2,0.9c-0.1,0.7,0,1.3,0.2,2c0.2,1.1,0.7,2.1,1.2,3C81.5,20.6,81.8,21,82,21.4z
		 M88.5,21.4C88.6,21.4,88.6,21.4,88.5,21.4c0.2-0.2,0.3-0.5,0.5-0.7c0.9-1.5,1.6-3,1.6-4.7c0-0.5,0-1.1-0.2-1.6
		c-0.3-0.8-1.4-0.8-1.8-0.3c-0.2,0.2-0.3,0.4-0.4,0.6c-0.2,0.4-0.5,0.7-1,0.9c-0.3,0.1-0.4,0.4-0.4,0.6c0,0.1,0,0.2,0,0.3
		c0.1,0.7,0.4,1.4,0.8,2C88.3,19.4,88.6,20.3,88.5,21.4z M79,13.2C78.9,13.2,78.9,13.2,79,13.2c-0.1,0-0.2,0-0.3-0.1
		c-0.8-0.3-1.6-0.2-2.3,0.1c-0.6,0.3-0.7,0.8-0.3,1.3c0.4,0.4,0.8,0.7,1.3,0.9c0.3,0.1,0.5,0.3,0.7,0.6c0.1,0.3,0.3,0.7,0.3,1
		c0.1,0.5,0.1,1.1,0.2,1.6c0.1,0.6,0.2,1.2,0.6,1.8l0.1,0.1c0-0.2,0.1-0.3,0-0.5c-0.1-0.6-0.2-1.3-0.2-1.9c0-0.3,0-0.6,0-0.8
		c0-0.5-0.2-1-0.5-1.4c0.1,0,0.2,0,0.4,0c0.3,0,0.4-0.2,0.3-0.4c0-0.1-0.1-0.1-0.1-0.2c-0.2-0.3-0.6-0.4-1-0.4s-0.8-0.1-1.2-0.3
		c-0.2-0.1-0.3-0.2-0.4-0.4s-0.1-0.3,0.2-0.4c0.2-0.1,0.4-0.1,0.7-0.2c0.3-0.1,0.6,0,0.9,0.2c0.1,0.1,0.2,0.2,0.3,0.2
		c0.3,0.2,0.7,0.2,0.9-0.2c0.2-0.3,0.3-0.7,0.5-1c0-0.1,0-0.3,0-0.4c0-0.2-0.1-0.3-0.2-0.4c-0.4-0.2-0.8,0-0.9,0.4
		C78.7,12.7,78.8,12.9,79,13.2z M91.8,13.2c0-0.2,0.1-0.4,0.1-0.7c0-0.4-0.3-0.6-0.7-0.6c-0.3,0-0.5,0.2-0.5,0.6
		c0,0.5,0.2,1,0.5,1.4c0.2,0.3,0.5,0.3,0.8,0.1c0.1,0,0.1-0.1,0.2-0.1c0.5-0.5,1.2-0.4,1.8-0.1c0.1,0.1,0.2,0.2,0.1,0.3
		c0,0.2-0.2,0.4-0.3,0.5c-0.3,0.2-0.7,0.3-1,0.3c-0.2,0-0.5,0-0.7,0.1c-0.4,0.1-0.7,0.4-0.7,0.7c0,0.1,0,0.2,0.2,0.2
		c0.1,0,0.3,0,0.4,0c-0.1,0.2-0.2,0.3-0.2,0.5c-0.2,0.4-0.2,0.9-0.3,1.4c-0.1,0.7-0.2,1.5-0.2,2.2c0,0.2,0,0.4,0,0.6h0.1
		c0.1-0.3,0.3-0.5,0.4-0.8c0.2-0.6,0.3-1.3,0.3-1.9c0-0.5,0.1-1,0.3-1.5c0.2-0.5,0.5-0.9,1.1-1.1c0.5-0.2,0.9-0.5,1.2-0.9
		c0.3-0.4,0.3-0.9-0.2-1.1c-0.6-0.3-1.2-0.5-1.8-0.4C92.4,13,92.1,13.1,91.8,13.2z M85.3,23.7c0.5-0.1,0.9-0.2,1.3-0.4
		c0.1-0.1,0.2-0.1,0.2-0.2c0-0.1,0.1-0.2,0-0.3l-0.2-0.1c-0.3,0-0.7,0.1-1,0.1c-0.6,0-1.2,0-1.7-0.1c-0.1,0-0.2,0-0.2,0.1
		s0,0.2,0,0.3s0.1,0.2,0.2,0.2C84.4,23.6,84.8,23.7,85.3,23.7z"/>
	<path class="st2" d="M85.3,20.8c-0.3-0.3-0.6-0.4-1-0.5s-0.7,0.1-0.7,0.5c0,0.2,0.1,0.3,0.3,0.3c0.2,0,0.3,0.1,0.5,0.1
		c0.5,0.1,0.8,0.5,0.8,0.9c0,0.2-0.1,0.3-0.3,0.4c-0.8,0.2-1.4,0-2-0.6c-0.3-0.3-0.4-0.7-0.3-1.1c0.1-0.6,0.4-1.2,0.8-1.7
		s0.8-1,1.2-1.4c0.4-0.5,0.9-0.5,1.4,0c0.7,0.7,1.3,1.5,1.8,2.4c0.2,0.4,0.3,0.7,0.3,1.1c0,0.3-0.1,0.6-0.4,0.8
		c-0.6,0.5-1.2,0.7-1.9,0.5c-0.2-0.1-0.3-0.1-0.3-0.4c0-0.4,0.2-0.7,0.6-0.8c0.2-0.1,0.3-0.1,0.5-0.1c0.2-0.1,0.4-0.2,0.3-0.5
		c0-0.3-0.2-0.4-0.5-0.4c-0.4,0-0.7,0.1-1,0.4C85.4,20.7,85.4,20.8,85.3,20.8z"/>
	<path class="st2" d="M82,21.4c-0.3-0.4-0.5-0.8-0.7-1.2c-0.5-0.9-1-1.9-1.2-3c-0.1-0.7-0.2-1.3-0.2-2c0-0.3,0.1-0.6,0.2-0.9
		c0.3-0.7,1.3-0.8,1.8-0.3c0.1,0.1,0.2,0.3,0.3,0.4c0.3,0.5,0.7,1,1.3,1.2c0.1,0,0.1,0.1,0.1,0.2c0.1,0.4,0,0.8-0.1,1.2
		c-0.1,0.5-0.4,1-0.7,1.5c-0.3,0.6-0.6,1.2-0.7,1.8C82.1,20.7,82.1,21,82,21.4z M82.3,16.5c0-0.2,0-0.4,0-0.6
		c-0.1-0.6-0.4-1-0.9-1.4c-0.1-0.1-0.3-0.2-0.5-0.1c-0.3,0.2-0.4,0.7-0.2,1c0.1,0.1,0.3,0.2,0.5,0.2c0.3,0.1,0.5,0.2,0.6,0.4
		c0.1,0.1,0.1,0.2,0.2,0.3C82.1,16.4,82.2,16.5,82.3,16.5z"/>
	<path class="st2" d="M88.5,21.4c0.1-1.1-0.2-2-0.8-2.9c-0.4-0.6-0.7-1.3-0.8-2c0-0.1,0-0.2,0-0.3c0-0.3,0-0.5,0.4-0.6
		c0.4-0.2,0.7-0.5,1-0.9c0.1-0.2,0.3-0.4,0.4-0.6c0.4-0.5,1.5-0.4,1.8,0.3c0.2,0.5,0.2,1.1,0.2,1.6c-0.1,1.7-0.8,3.2-1.6,4.7
		C88.9,20.9,88.7,21.2,88.5,21.4C88.6,21.4,88.6,21.4,88.5,21.4z M88.5,16.5L88.5,16.5c0.1,0,0.2,0,0.2-0.1c0.1-0.1,0.2-0.2,0.2-0.3
		c0.1-0.2,0.3-0.3,0.6-0.4c0.1,0,0.2,0,0.3-0.1c0.2-0.1,0.4-0.3,0.4-0.5c0-0.3-0.1-0.5-0.3-0.6c-0.2-0.1-0.4,0-0.6,0.1
		c-0.4,0.3-0.7,0.8-0.8,1.3C88.4,16.1,88.5,16.3,88.5,16.5z"/>
	<path class="st2" d="M79,13.2c-0.2-0.3-0.3-0.5-0.2-0.8c0.1-0.4,0.5-0.6,0.9-0.4c0.2,0.1,0.2,0.2,0.2,0.4c0,0.1,0,0.3,0,0.4
		c-0.1,0.4-0.3,0.7-0.5,1c-0.2,0.4-0.6,0.4-0.9,0.2c-0.1-0.1-0.2-0.2-0.3-0.2c-0.3-0.2-0.6-0.3-0.9-0.2c-0.2,0-0.4,0.1-0.7,0.2
		c-0.2,0.1-0.3,0.2-0.2,0.4c0.1,0.2,0.2,0.3,0.4,0.4c0.4,0.2,0.8,0.3,1.2,0.3c0.4,0,0.7,0.1,1,0.4c0,0.1,0.1,0.1,0.1,0.2
		c0.1,0.3,0,0.4-0.3,0.4c-0.1,0-0.2,0-0.4,0c0.3,0.4,0.5,0.9,0.5,1.4c0,0.3,0,0.6,0,0.8c0.1,0.6,0.2,1.3,0.2,1.9c0,0.2,0,0.3,0,0.5
		L79,20.4c-0.4-0.5-0.5-1.1-0.6-1.8c-0.1-0.5-0.1-1.1-0.2-1.6c-0.1-0.3-0.2-0.7-0.3-1c-0.1-0.3-0.4-0.5-0.7-0.6
		c-0.5-0.2-1-0.5-1.3-0.9c-0.4-0.5-0.3-1,0.3-1.3c0.8-0.3,1.5-0.5,2.3-0.1C78.8,13.2,78.8,13.2,79,13.2C78.9,13.2,78.9,13.2,79,13.2
		z"/>
	<path class="st2" d="M91.8,13.2c0.3-0.1,0.5-0.2,0.8-0.2c0.7-0.1,1.3,0.1,1.8,0.4c0.5,0.3,0.5,0.7,0.2,1.1
		c-0.3,0.4-0.7,0.7-1.2,0.9s-0.9,0.5-1.1,1.1c-0.2,0.5-0.2,1-0.3,1.5c-0.1,0.6-0.1,1.3-0.3,1.9c-0.1,0.3-0.2,0.5-0.4,0.8h-0.1
		c0-0.2,0-0.4,0-0.6c0.1-0.7,0.2-1.5,0.2-2.2c0-0.5,0.1-0.9,0.3-1.4c0.1-0.1,0.2-0.3,0.2-0.5c-0.1,0-0.3,0-0.4,0
		c-0.2,0-0.2-0.1-0.2-0.2c0-0.3,0.3-0.7,0.7-0.7c0.2,0,0.5-0.1,0.7-0.1c0.4,0,0.7-0.1,1-0.3c0.2-0.1,0.3-0.3,0.3-0.5
		c0-0.1,0-0.2-0.1-0.3c-0.5-0.2-1.3-0.4-1.8,0.1c-0.1,0.1-0.1,0.1-0.2,0.1c-0.3,0.2-0.6,0.2-0.8-0.1c-0.3-0.4-0.5-0.9-0.5-1.4
		c0-0.4,0.1-0.6,0.5-0.6s0.7,0.2,0.7,0.6C92,12.7,91.9,13,91.8,13.2z"/>
	<path class="st2" d="M85.3,23.7c-0.5-0.1-1-0.2-1.4-0.4c-0.1-0.1-0.2-0.1-0.2-0.2c0-0.1-0.1-0.2,0-0.3l0.2-0.1
		c0.6,0.1,1.1,0.2,1.7,0.1c0.3,0,0.7-0.1,1-0.1c0.1,0,0.2,0,0.2,0.1s0,0.2,0,0.3s-0.1,0.2-0.2,0.2C86.3,23.6,85.8,23.7,85.3,23.7z"
		/>
	<path class="st1" d="M82.3,16.5c-0.1-0.1-0.2-0.1-0.2-0.1c-0.1-0.1-0.1-0.2-0.2-0.3c-0.1-0.2-0.3-0.3-0.6-0.4
		c-0.2,0-0.4-0.1-0.5-0.2c-0.3-0.3-0.2-0.8,0.2-1c0.2-0.1,0.3,0,0.5,0.1c0.5,0.3,0.8,0.8,0.9,1.4C82.3,16.1,82.3,16.3,82.3,16.5z"/>
	<path class="st1" d="M88.5,16.5c0-0.2,0-0.4,0-0.6c0.1-0.5,0.4-1,0.8-1.3c0.2-0.1,0.4-0.2,0.6-0.1c0.2,0.1,0.3,0.4,0.3,0.6
		c0,0.2-0.1,0.4-0.4,0.5c-0.1,0-0.2,0.1-0.3,0.1c-0.2,0.1-0.4,0.2-0.6,0.4c-0.1,0.1-0.1,0.2-0.2,0.3C88.6,16.4,88.6,16.5,88.5,16.5
		L88.5,16.5z"/>
</g>
</svg>
